<?xml version="1.0" encoding="UTF-8"?>
<svg xmlns="http://www.w3.org/2000/svg" xmlns:xlink="http://www.w3.org/1999/xlink" width="234.5" height="863.5" viewBox="-39.25 -824.25 234.5 863.5">
<defs>
<style type="text/css">
.l126d0 {stroke: #E68FAC; fill: #E68FAC; fill-opacity: 0.5;}
.l189d4 {stroke: #A1CAF1; fill: #A1CAF1; fill-opacity: 0.5;}
</style>
</defs>
<rect x="-39.25" y="-824.25" width="234.5" height="863.5" fill="#222222" stroke="none"/>
<g id="mini_kraken" transform="scale(1 -1)">
<polygon id="0x14960dd50" class="l189d4" points="0,0 156,0 156,785 0,785"/>
<polygon id="0x149693f50" class="l126d0" points="129,554 129,588 78,588 78,656 44,656 44,554"/>
<polygon id="0x1496bb300" class="l126d0" points="61,469 61,435 112,435 112,469 95,469 95,503 112,503 112,537 61,537 61,503 78,503 78,469"/>
<polygon id="0x14969e1c0" class="l126d0" points="61,299 61,367 78,367 78,418 27,418 27,299"/>
<polygon id="0x1496a0060" class="l126d0" points="95,367 95,316 112,316 112,299 146,299 146,418 112,418 112,367"/>
<polygon id="0x1496c0d50" class="l126d0" points="112,282 61,282 61,265 27,265 27,231 61,231 61,248 112,248 112,231 61,231 27,231 27,180 61,180 61,197 112,197 112,180 146,180 146,265 112,265"/>
<polygon id="0x1496a0150" class="l126d0" points="27,95 61,95 61,112 95,112 95,95 61,95 27,95 27,10 61,10 61,61 129,61 129,146 27,146"/>
<polygon id="0x1496a01c0" class="l126d0" points="129,44 95,44 95,10 129,10"/>
<polygon id="0x1496bb6b0" class="l126d0" points="61,673 61,690 112,690 112,673 146,673 146,758 112,758 112,775 61,775 61,758 27,758 27,724 61,724 61,741 112,741 112,724 61,724 27,724 27,673"/>
</g>
</svg>